<?xml version="1.0" encoding="utf-8"?>
<!-- Generator: Adobe Illustrator 19.2.1, SVG Export Plug-In . SVG Version: 6.00 Build 0)  -->
<svg version="1.1" id="Layer_1" xmlns="http://www.w3.org/2000/svg" xmlns:xlink="http://www.w3.org/1999/xlink" x="0px" y="0px"
	 viewBox="0 0 12 12" style="enable-background:new 0 0 12 12;" xml:space="preserve">
<style type="text/css">
	.st0{fill:#5C5859;}
	.st1{fill:#1696D2;}
</style>
<path class="st0" d="M9.5,8.3c0,0.9-0.7,1.6-1.6,1.6H3.3c-0.9,0-1.6-0.7-1.6-1.6V3.7c0-0.9,0.7-1.6,1.6-1.6h4.6c0.2,0,0.4,0,0.7,0.1
	c0.1,0,0.1,0.1,0.1,0.1c0,0.1,0,0.1,0,0.2L8.3,2.8c0,0-0.1,0.1-0.1,0.1c0,0,0,0-0.1,0c-0.1,0-0.2,0-0.3,0H3.3
	c-0.5,0-0.9,0.4-0.9,0.9v4.6c0,0.5,0.4,0.9,0.9,0.9h4.6c0.5,0,0.9-0.4,0.9-0.9V6.9c0,0,0-0.1,0-0.1l0.4-0.4c0,0,0.1-0.1,0.1-0.1
	c0,0,0,0,0.1,0c0.1,0,0.1,0.1,0.1,0.2V8.3z"/>
<path class="st1" d="M6.3,8.4c-0.2,0.2-0.5,0.2-0.6,0L3.2,6C3,5.8,3,5.5,3.2,5.3l0.6-0.6c0.2-0.2,0.5-0.2,0.6,0l1.5,1.5l3.6-3.6
	c0.2-0.2,0.5-0.2,0.6,0l0.6,0.6c0.2,0.2,0.2,0.5,0,0.6L6.3,8.4z"/>
<g>
</g>
<g>
</g>
<g>
</g>
<g>
</g>
<g>
</g>
</svg>
